<svg width="354px" height="20px" viewBox="0 0 354 20" fill="none" xmlns="http://www.w3.org/2000/svg" transform="rotate(0) scale(1, 1)">
<path d="M1 1C4.45098 4.00085 14.8039 19.0051 21.7059 19.0051C28.6078 19.0051 35.5098 1 42.4118 1C49.3137 1 56.2157 19.0051 63.1176 19.0051C70.0196 19.0051 76.9216 1 83.8235 1C90.7255 1 97.6274 19.0051 104.529 19.0051C111.431 19.0051 118.333 1 125.235 1C132.137 1 139.039 19.0051 145.941 19.0051C152.843 19.0051 159.745 1 166.647 1C173.549 1 180.451 19.0051 187.353 19.0051C194.255 19.0051 201.157 1 208.059 1C214.961 1 221.863 19.0051 228.765 19.0051C235.667 19.0051 242.569 1 249.471 1C256.373 1 263.275 19.0051 270.176 19.0051C277.078 19.0051 283.98 1 290.882 1C297.784 1 304.686 19.0051 311.588 19.0051C318.49 19.0051 325.392 1 332.294 1C339.196 1 349.549 16.0043 353 19.0051" stroke="#4a2894" stroke-width="1.35038" stroke-linecap="round" stroke-linejoin="round"/>
</svg>