<svg width="233" height="250" viewBox="0 0 233 250" fill="none" xmlns="http://www.w3.org/2000/svg">
<rect x="6.18989" y="0.547434" width="243.904" height="169.892" rx="3.78472" transform="rotate(22 6.18989 0.547434)" stroke="white" stroke-width="0.841049"/>
<path d="M-52.4116 145.592L173.732 236.96" stroke="white" stroke-width="0.841049"/>
<path d="M2.81469 175.506C3.04076 175.371 3.21876 175.165 3.31907 174.917C3.47821 174.523 3.40865 174.061 3.13823 173.71C3.06862 173.62 2.97611 173.55 2.87029 173.507L0.766567 172.657L1.25482 171.6C1.37237 171.345 1.38021 171.06 1.27745 170.799C1.22718 170.671 1.15111 170.554 1.05392 170.456C0.95674 170.358 0.840515 170.281 0.71243 170.23C0.256243 170.046 -0.271363 170.19 -0.570005 170.58L-2.42591 173.004L-2.42855 173.003L-3.94557 176.758L0.197833 178.432C0.278543 178.465 0.363879 178.481 0.449453 178.479C0.938992 178.469 1.37313 178.17 1.55603 177.717C1.60069 177.607 1.62885 177.492 1.6398 177.374C1.86587 177.238 2.04387 177.033 2.14417 176.785C2.18883 176.674 2.21699 176.559 2.22795 176.441C2.45402 176.306 2.63201 176.1 2.73232 175.852C2.77523 175.74 2.80374 175.624 2.81469 175.506ZM-3.95439 172.713L-5.24457 175.907C-5.30731 176.062 -5.23254 176.238 -5.07727 176.301L-4.50703 176.531L-2.99001 172.776L-3.56024 172.546C-3.71552 172.483 -3.89166 172.558 -3.95439 172.713Z" fill="white"/>
<path d="M7.38416 180.818L9.61888 175.287L9.60182 175.28L7.50346 175.722L7.74295 175.129L9.86191 174.661L10.4334 174.892L7.94708 181.045L7.38416 180.818ZM11.3308 182.413L13.5655 176.881L13.5484 176.875L11.4501 177.317L11.6896 176.724L13.8085 176.255L14.38 176.486L11.8937 182.64L11.3308 182.413Z" fill="white"/>
<path d="M58.8957 94.4924L69.3057 83.0969L70.9601 83.7653L70.5232 99.1902L68.7665 98.4805L68.9604 94.0935L63.5603 91.9117L60.6523 95.2021L58.8957 94.4924ZM69.3032 85.4312L64.646 90.6962L69.0331 92.4687L69.3403 85.4463L69.3032 85.4312ZM72.3862 99.9429L76.2916 90.2766L77.9089 90.93L77.248 92.5658L77.2851 92.5808C78.0611 91.5969 79.183 91.2285 80.2705 91.6679C80.5493 91.7805 80.7722 91.9246 80.8948 91.9958L80.2602 93.5666C80.1488 93.4675 79.8237 93.2821 79.4333 93.1244C78.1785 92.6174 77.0076 93.1607 76.4143 94.6292L74.0034 100.596L72.3862 99.9429ZM82.3626 104.19C80.5873 103.473 80.0366 102.32 80.7839 100.471L83.1534 94.6058L81.7407 94.035L82.2814 92.6966L83.6942 93.2674L84.7494 90.6556L86.4224 91.3316L85.3672 93.9433L87.2075 94.6869L86.6668 96.0253L84.8265 95.2818L82.4607 101.137C82.0438 102.169 82.3828 102.641 83.2472 102.99C83.4424 103.069 83.6396 103.116 83.7828 103.164L83.2533 104.474C83.0375 104.419 82.6786 104.318 82.3626 104.19ZM91.0885 94.352C90.5308 94.1267 90.2594 93.4872 90.4847 92.9296C90.7138 92.3626 91.3495 92.1005 91.9071 92.3258C92.4741 92.5549 92.74 93.1812 92.5109 93.7482C92.2856 94.3059 91.6555 94.5811 91.0885 94.352ZM85.7135 105.327L89.6189 95.6611L91.2362 96.3146L87.3307 105.981L85.7135 105.327ZM90.6251 107.312L93.9898 98.984L92.6421 98.4395L93.1828 97.1011L94.5306 97.6456L95.0112 96.4559C95.7623 94.5969 96.9834 94.0632 98.768 94.7842C99.1305 94.9307 99.5003 95.1125 99.7269 95.2473L99.1974 96.5579C99.0135 96.4511 98.7663 96.3404 98.5154 96.239C97.6231 95.8785 96.9929 96.1537 96.6061 97.1111L96.1292 98.2915L98.1183 99.0951L97.5775 100.434L95.6071 99.6374L92.2424 107.965L90.6251 107.312ZM101.934 98.7339C101.376 98.5086 101.105 97.8692 101.33 97.3115C101.559 96.7445 102.195 96.4824 102.753 96.7077C103.32 96.9368 103.586 97.5632 103.357 98.1301C103.131 98.6878 102.501 98.963 101.934 98.7339ZM96.5591 109.709L100.465 100.043L102.082 100.696L98.1764 110.363L96.5591 109.709ZM104.881 113.288C102.139 112.18 101.19 109.526 102.433 106.45L102.436 106.44C103.668 103.392 106.232 102.157 108.918 103.242C111.325 104.215 112.102 106.388 111.638 108.125L111.617 108.203L110.037 107.565L110.048 107.483C110.197 106.419 109.762 105.248 108.34 104.674C106.658 103.994 104.97 104.934 104.083 107.127L104.08 107.137C103.171 109.386 103.786 111.181 105.459 111.857C106.779 112.39 107.925 111.988 108.631 111.019L108.679 110.952L110.269 111.594L110.233 111.655C109.229 113.391 107.065 114.17 104.881 113.288ZM116.535 104.633C115.977 104.408 115.706 103.768 115.931 103.211C116.16 102.644 116.796 102.381 117.353 102.607C117.92 102.836 118.186 103.462 117.957 104.029C117.732 104.587 117.102 104.862 116.535 104.633ZM111.16 115.608L115.065 105.942L116.682 106.596L112.777 116.262L111.16 115.608ZM118.301 118.71C116.377 117.933 115.555 116.249 116.265 114.492L116.272 114.474C116.937 112.829 118.636 112.315 120.91 113.082L123.744 114.044L124.071 113.235C124.547 112.054 124.065 111.027 122.717 110.483C121.472 109.979 120.451 110.259 119.916 111.048L119.863 111.124L118.302 110.493L118.353 110.395C119.134 108.862 121.037 108.139 123.314 109.059C125.601 109.983 126.533 111.797 125.752 113.73L123.052 120.413L121.434 119.76L122.069 118.189L122.032 118.174C121.037 119.004 119.593 119.232 118.301 118.71ZM117.919 115.161C117.543 116.09 118.069 116.984 119.231 117.453C120.755 118.069 122.351 117.492 122.918 116.088L123.237 115.298L120.589 114.412C119.267 113.965 118.291 114.241 117.927 115.142L117.919 115.161ZM125.76 121.508L131.179 108.095L132.797 108.749L127.378 122.161L125.76 121.508ZM37.3719 111.681L42.7908 98.269L44.4638 98.945L39.045 112.357L37.3719 111.681ZM41.9675 113.538L45.873 103.871L47.4903 104.525L46.9345 105.9L46.9717 105.916C47.8564 105.224 49.1083 104.962 50.5768 105.556C52.696 106.412 53.3671 108.283 52.4771 110.486L49.9423 116.76L48.325 116.106L50.7434 110.121C51.378 108.55 50.993 107.389 49.5059 106.788C47.9816 106.172 46.5477 106.858 45.883 108.503L43.5848 114.191L41.9675 113.538ZM55.6432 119.279C53.8679 118.562 53.3172 117.41 54.0645 115.56L56.434 109.695L55.0213 109.125L55.562 107.786L56.9748 108.357L58.03 105.745L59.7031 106.421L58.6478 109.033L60.4882 109.776L59.9474 111.115L58.1071 110.371L55.7413 116.227C55.3244 117.259 55.6635 117.731 56.5278 118.08C56.723 118.159 56.9202 118.206 57.0634 118.253L56.5339 119.564C56.3181 119.509 55.9592 119.407 55.6432 119.279ZM62.516 122.056C59.7369 120.933 58.8487 118.315 60.0767 115.276L60.0804 115.266C61.2896 112.273 63.8297 110.91 66.4694 111.977C69.1091 113.043 69.9247 115.654 68.753 118.554L68.5127 119.149L61.5511 116.336C60.7846 118.34 61.412 119.945 63.1315 120.64C64.3583 121.136 65.4706 120.871 66.0836 120.157L66.1453 120.084L67.7347 120.727L67.6785 120.812C66.7166 122.283 64.6258 122.909 62.516 122.056ZM65.8818 113.404C64.4783 112.837 62.9948 113.352 62.0897 115.083L67.3783 117.22C67.9788 115.279 67.2946 113.975 65.8818 113.404ZM69.027 124.471L74.4458 111.058L76.0631 111.712L70.6443 125.124L69.027 124.471ZM73.4832 126.271L78.902 112.859L80.5193 113.512L75.1005 126.924L73.4832 126.271ZM83.333 117.103C82.7753 116.878 82.5039 116.239 82.7292 115.681C82.9583 115.114 83.594 114.852 84.1516 115.077C84.7186 115.306 84.9845 115.933 84.7554 116.5C84.5301 117.057 83.9 117.332 83.333 117.103ZM77.958 128.079L81.8634 118.413L83.4807 119.066L79.5752 128.732L77.958 128.079ZM85.0493 134.944C82.6606 133.979 81.6092 132.246 81.8715 130.687L81.8867 130.596L83.5133 131.253L83.5167 131.352C83.5417 132.173 84.2892 132.972 85.609 133.505C87.3099 134.193 88.6558 133.644 89.2604 132.148L89.7599 130.912L89.7227 130.897C88.7146 131.733 87.3213 131.97 85.9364 131.411C83.5013 130.427 82.6299 127.793 83.8503 124.773L83.8541 124.763C85.067 121.761 87.538 120.489 89.9917 121.48C91.358 122.032 92.1358 123.212 92.295 124.53L92.3322 124.545L92.9931 122.909L94.6104 123.563L90.8138 132.959C89.9088 135.199 87.6703 136.003 85.0493 134.944ZM86.8679 130.122C88.5131 130.787 90.1955 129.834 91.0629 127.687L91.0667 127.677C91.9266 125.549 91.3653 123.7 89.7294 123.039C88.0099 122.345 86.376 123.285 85.5085 125.432L85.5048 125.441C84.6185 127.635 85.1484 129.427 86.8679 130.122ZM97.2702 136.098C94.4912 134.975 93.603 132.356 94.8309 129.317L94.8347 129.308C96.0439 126.315 98.584 124.952 101.224 126.018C103.863 127.085 104.679 129.696 103.507 132.596L103.267 133.19L96.3053 130.378C95.5389 132.382 96.1662 133.987 97.8857 134.681C99.1126 135.177 100.225 134.913 100.838 134.198L100.9 134.126L102.489 134.768L102.433 134.854C101.471 136.325 99.3801 136.95 97.2702 136.098ZM100.636 127.446C99.2326 126.879 97.749 127.393 96.8439 129.125L102.133 131.262C102.733 129.32 102.049 128.017 100.636 127.446ZM103.698 138.478L107.603 128.812L109.22 129.465L108.665 130.841L108.702 130.856C109.586 130.165 110.838 129.903 112.307 130.496C114.426 131.352 115.097 133.224 114.207 135.427L111.672 141.7L110.055 141.047L112.473 135.061C113.108 133.491 112.723 132.329 111.236 131.729C109.712 131.113 108.278 131.798 107.613 133.444L105.315 139.132L103.698 138.478ZM118.238 144.569C115.496 143.461 114.546 140.807 115.789 137.731L115.793 137.722C117.025 134.673 119.589 133.438 122.275 134.524C124.682 135.496 125.458 137.669 124.994 139.406L124.974 139.485L123.393 138.846L123.405 138.764C123.554 137.7 123.119 136.529 121.696 135.955C120.014 135.275 118.326 136.215 117.44 138.409L117.436 138.418C116.527 140.667 117.143 142.462 118.816 143.138C120.136 143.671 121.282 143.269 121.987 142.3L122.036 142.233L123.625 142.875L123.59 142.937C122.586 144.672 120.422 145.452 118.238 144.569ZM128.317 148.642C125.538 147.519 124.65 144.9 125.878 141.861L125.882 141.852C127.091 138.859 129.631 137.496 132.271 138.562C134.91 139.629 135.726 142.239 134.554 145.139L134.314 145.734L127.352 142.921C126.586 144.926 127.213 146.53 128.933 147.225C130.159 147.721 131.272 147.457 131.885 146.742L131.946 146.67L133.536 147.312L133.48 147.397C132.518 148.868 130.427 149.494 128.317 148.642ZM131.683 139.99C130.279 139.423 128.796 139.937 127.891 141.669L133.179 143.805C133.78 141.864 133.096 140.561 131.683 139.99ZM58.0547 140.603L58.7569 138.865L69.3818 139.06L68.8035 140.491L59.7629 140.255L66.4264 146.375L65.8331 147.843L58.0547 140.603ZM67.3647 149.684L77.7747 138.288L79.4291 138.957L78.9922 154.382L77.2355 153.672L77.4294 149.285L72.0293 147.103L69.1213 150.394L67.3647 149.684ZM77.7722 140.623L73.115 145.888L77.5021 147.66L77.8093 140.638L77.7722 140.623ZM81.1061 155.236L86.525 141.824L88.198 142.5L82.7791 155.912L81.1061 155.236ZM97.5554 154.54L96.8532 156.278L86.2283 156.083L86.8066 154.652L95.851 154.879L89.1837 148.769L89.777 147.3L97.5554 154.54Z" fill="white"/>
</svg>
