<svg width="233" height="250" viewBox="0 0 233 250" fill="none" xmlns="http://www.w3.org/2000/svg">
<rect x="6.18989" y="0.547434" width="243.904" height="169.892" rx="3.78472" transform="rotate(22 6.18989 0.547434)" stroke="white" stroke-width="0.841049"/>
<path d="M-52.4116 145.592L173.732 236.96" stroke="white" stroke-width="0.841049"/>
<path d="M2.81469 175.506C3.04076 175.371 3.21876 175.165 3.31907 174.917C3.47821 174.523 3.40865 174.061 3.13823 173.71C3.06862 173.62 2.97611 173.55 2.87029 173.507L0.766567 172.657L1.25482 171.6C1.37237 171.345 1.38021 171.06 1.27745 170.799C1.22718 170.671 1.15111 170.554 1.05392 170.456C0.95674 170.358 0.840515 170.281 0.71243 170.23C0.256243 170.046 -0.271363 170.19 -0.570005 170.58L-2.42591 173.004L-2.42855 173.003L-3.94557 176.758L0.197833 178.432C0.278543 178.465 0.363879 178.481 0.449453 178.479C0.938992 178.469 1.37313 178.17 1.55603 177.717C1.60069 177.607 1.62885 177.492 1.6398 177.374C1.86587 177.238 2.04387 177.033 2.14417 176.785C2.18883 176.674 2.21699 176.559 2.22795 176.441C2.45402 176.306 2.63201 176.1 2.73232 175.852C2.77523 175.74 2.80374 175.624 2.81469 175.506ZM-3.95439 172.713L-5.24457 175.907C-5.30731 176.062 -5.23254 176.238 -5.07727 176.301L-4.50703 176.531L-2.99001 172.776L-3.56024 172.546C-3.71552 172.483 -3.89166 172.558 -3.95439 172.713Z" fill="white"/>
<path d="M7.38416 180.818L9.61888 175.287L9.60182 175.28L7.50346 175.722L7.74295 175.129L9.86191 174.661L10.4334 174.892L7.94708 181.045L7.38416 180.818ZM11.3308 182.413L13.5655 176.881L13.5484 176.875L11.4501 177.317L11.6896 176.724L13.8085 176.255L14.38 176.486L11.8937 182.64L11.3308 182.413Z" fill="white"/>
<path d="M52.8101 92.0338L58.229 78.6217L59.902 79.2976L54.4832 92.7097L52.8101 92.0338ZM57.4057 93.8905L61.3112 84.2242L62.9285 84.8776L62.3727 86.2532L62.4099 86.2682C63.2946 85.5769 64.5465 85.315 66.015 85.9084C68.1342 86.7646 68.8053 88.6359 67.9153 90.8387L65.3805 97.1125L63.7632 96.4591L66.1816 90.4734C66.8163 88.9026 66.4312 87.7415 64.9441 87.1407C63.4198 86.5248 61.9859 87.2105 61.3212 88.8556L59.023 94.5439L57.4057 93.8905ZM71.3695 99.7485C69.0924 98.8284 68.1862 97.1108 68.6895 95.3032L68.714 95.2158L70.3312 95.8692L70.3123 95.9697C70.1169 97.0151 70.6035 97.8713 71.9233 98.4045C73.2339 98.934 74.2362 98.7011 74.5892 97.8274L74.5929 97.8181C74.8746 97.121 74.6698 96.5842 73.6819 95.8715L72.2986 94.8801C70.6533 93.7072 70.1121 92.5047 70.6753 91.1105L70.6791 91.1012C71.3513 89.4375 73.2875 88.8466 75.3787 89.6916C77.4979 90.5478 78.3462 92.3284 77.8136 93.9945L77.7741 94.1191L76.2312 93.4957L76.2481 93.4269C76.4973 92.4356 76.0332 91.5237 74.8342 91.0393C73.6631 90.5661 72.7091 90.8402 72.3636 91.6953L72.3598 91.7046C72.0932 92.3645 72.346 92.9964 73.3098 93.6885L74.6932 94.6799C76.4535 95.9425 76.8482 96.9994 76.2924 98.375L76.2887 98.3843C75.6052 100.076 73.5259 100.62 71.3695 99.7485ZM80.5195 103.445C78.7442 102.728 78.1935 101.576 78.9408 99.7261L81.3103 93.8612L79.8976 93.2904L80.4383 91.952L81.8511 92.5228L82.9063 89.911L84.5793 90.587L83.5241 93.1987L85.3644 93.9423L84.8237 95.2807L82.9834 94.5372L80.6176 100.393C80.2007 101.424 80.5397 101.897 81.4041 102.246C81.5993 102.325 81.7965 102.372 81.9397 102.419L81.4102 103.729C81.1944 103.675 80.8355 103.573 80.5195 103.445ZM89.2454 93.6074C88.6877 93.3821 88.4163 92.7427 88.6416 92.185C88.8707 91.618 89.5063 91.3559 90.064 91.5812C90.631 91.8103 90.8969 92.4367 90.6678 93.0036C90.4425 93.5613 89.8123 93.8365 89.2454 93.6074ZM83.8704 104.583L87.7758 94.9166L89.3931 95.57L85.4876 105.236L83.8704 104.583ZM91.328 107.812C89.5527 107.095 89.002 105.943 89.7492 104.093L92.1188 98.2281L90.706 97.6573L91.2468 96.3189L92.6596 96.8897L93.7148 94.2779L95.3878 94.9539L94.3326 97.5657L96.1729 98.3092L95.6322 99.6476L93.7918 98.9041L91.426 104.76C91.0092 105.791 91.3482 106.263 92.2126 106.613C92.4078 106.692 92.605 106.739 92.7481 106.786L92.2186 108.096C92.0029 108.042 91.644 107.94 91.328 107.812ZM97.8011 110.428C95.6819 109.571 95.0108 107.7 95.9008 105.497L98.4356 99.2234L100.053 99.8768L97.6345 105.862C96.9998 107.433 97.3849 108.594 98.872 109.195C100.396 109.811 101.83 109.125 102.495 107.48L104.793 101.792L106.41 102.445L102.505 112.112L100.888 111.458L101.443 110.083L101.406 110.068C100.521 110.759 99.2696 111.021 97.8011 110.428ZM108.252 114.65C106.477 113.933 105.926 112.78 106.674 110.931L109.043 105.066L107.63 104.495L108.171 103.157L109.584 103.728L110.639 101.116L112.312 101.792L111.257 104.404L113.097 105.147L112.556 106.485L110.716 105.742L108.35 111.598C107.933 112.629 108.273 113.101 109.137 113.451C109.332 113.529 109.529 113.577 109.672 113.624L109.143 114.934C108.927 114.88 108.568 114.778 108.252 114.65ZM116.978 104.812C116.42 104.587 116.149 103.947 116.374 103.39C116.603 102.823 117.239 102.561 117.797 102.786C118.364 103.015 118.63 103.641 118.401 104.208C118.175 104.766 117.545 105.041 116.978 104.812ZM111.603 115.788L115.509 106.121L117.126 106.775L113.22 116.441L111.603 115.788ZM119.925 119.366C117.239 118.281 116.23 115.614 117.473 112.537L117.48 112.519C118.723 109.442 121.304 108.247 123.971 109.324C126.639 110.402 127.678 113.049 126.431 116.135L126.424 116.153C125.177 119.239 122.593 120.444 119.925 119.366ZM120.513 117.939C122.214 118.626 123.853 117.753 124.769 115.485L124.777 115.466C125.693 113.199 125.103 111.447 123.393 110.756C121.711 110.076 120.047 110.928 119.135 113.187L119.127 113.206C118.207 115.483 118.803 117.248 120.513 117.939ZM126.678 121.878L130.583 112.212L132.201 112.865L131.645 114.241L131.682 114.256C132.567 113.565 133.819 113.303 135.287 113.896C137.406 114.752 138.077 116.624 137.187 118.826L134.653 125.1L133.035 124.447L135.454 118.461C136.088 116.89 135.703 115.729 134.216 115.128C132.692 114.513 131.258 115.198 130.593 116.843L128.295 122.532L126.678 121.878ZM42.0882 113.587L47.507 100.175L49.18 100.851L43.7612 114.263L42.0882 113.587ZM46.6838 115.443L50.5893 105.777L52.2065 106.43L51.6507 107.806L51.6879 107.821C52.5727 107.13 53.8245 106.868 55.2931 107.461C57.4122 108.317 58.0833 110.189 57.1933 112.392L54.6585 118.665L53.0413 118.012L55.4597 112.026C56.0943 110.455 55.7093 109.294 54.2221 108.694C52.6978 108.078 51.2639 108.763 50.5993 110.409L48.3011 116.097L46.6838 115.443ZM57.293 119.73L61.1985 110.063L62.8157 110.717L62.2599 112.092L62.2971 112.107C63.1819 111.416 64.4337 111.154 65.9023 111.748C68.0214 112.604 68.6925 114.475 67.8025 116.678L65.2677 122.952L63.6505 122.298L66.0689 116.313C66.7035 114.742 66.3185 113.581 64.8313 112.98C63.307 112.364 61.8731 113.05 61.2085 114.695L58.9102 120.383L57.293 119.73ZM71.833 125.821C69.1469 124.735 68.1379 122.068 69.3809 118.991L69.3884 118.973C70.6314 115.896 73.2119 114.701 75.8794 115.779C78.547 116.856 79.5858 119.503 78.3391 122.589L78.3316 122.608C77.0848 125.694 74.5006 126.898 71.833 125.821ZM72.4206 124.393C74.1216 125.08 75.7609 124.207 76.6771 121.939L76.6846 121.921C77.6009 119.653 77.0113 117.901 75.3011 117.21C73.6188 116.53 71.9554 117.383 71.0428 119.641L71.0353 119.66C70.1153 121.937 70.7104 123.702 72.4206 124.393ZM80.9373 129.283L81.2829 118.178L82.9838 118.865L82.4406 127.89L82.4778 127.905L88.3654 121.04L90.0477 121.719L82.5917 129.951L80.9373 129.283ZM90.5512 133.383C88.6272 132.606 87.8047 130.922 88.5144 129.165L88.5219 129.147C89.1866 127.502 90.8861 126.988 93.1601 127.756L95.9937 128.717L96.3204 127.908C96.7973 126.728 96.315 125.7 94.9673 125.156C93.7218 124.653 92.7008 124.932 92.1656 125.721L92.1132 125.797L90.5518 125.166L90.6024 125.068C91.3839 123.535 93.287 122.812 95.5642 123.732C97.8507 124.656 98.7826 126.47 98.0015 128.403L95.3015 135.086L93.6842 134.433L94.3189 132.862L94.2817 132.847C93.2866 133.677 91.8431 133.905 90.5512 133.383ZM90.1689 129.834C89.7933 130.763 90.3189 131.657 91.4807 132.126C93.005 132.742 94.6005 132.165 95.1675 130.761L95.4867 129.971L92.839 129.085C91.517 128.638 90.5406 128.914 90.1764 129.815L90.1689 129.834ZM100.993 137.602C99.2178 136.885 98.6671 135.732 99.4144 133.883L101.784 128.018L100.371 127.447L100.912 126.109L102.325 126.68L103.38 124.068L105.053 124.744L103.998 127.355L105.838 128.099L105.297 129.437L103.457 128.694L101.091 134.549C100.674 135.581 101.013 136.053 101.878 136.403C102.073 136.481 102.27 136.529 102.413 136.576L101.884 137.886C101.668 137.831 101.309 137.73 100.993 137.602ZM109.719 127.764C109.161 127.539 108.89 126.899 109.115 126.342C109.344 125.775 109.98 125.513 110.538 125.738C111.105 125.967 111.37 126.593 111.141 127.16C110.916 127.718 110.286 127.993 109.719 127.764ZM104.344 138.74L108.249 129.073L109.867 129.727L105.961 139.393L104.344 138.74ZM112.666 142.318C109.98 141.233 108.971 138.566 110.214 135.489L110.221 135.47C111.464 132.394 114.045 131.198 116.712 132.276C119.38 133.354 120.419 136.001 119.172 139.087L119.164 139.105C117.918 142.191 115.333 143.396 112.666 142.318ZM113.254 140.891C114.954 141.578 116.594 140.705 117.51 138.437L117.518 138.418C118.434 136.15 117.844 134.399 116.134 133.708C114.452 133.028 112.788 133.88 111.876 136.139L111.868 136.157C110.948 138.435 111.543 140.2 113.254 140.891ZM119.419 144.83L123.324 135.164L124.941 135.817L124.386 137.193L124.423 137.208C125.308 136.517 126.559 136.255 128.028 136.848C130.147 137.704 130.818 139.576 129.928 141.778L127.393 148.052L125.776 147.399L128.195 141.413C128.829 139.842 128.444 138.681 126.957 138.08C125.433 137.465 123.999 138.15 123.334 139.795L121.036 145.484L119.419 144.83ZM50.4084 143.093C46.6813 141.587 45.3798 137.904 47.0847 133.684L47.0885 133.675C48.7934 129.455 52.2711 127.725 56.0075 129.234C58.7959 130.361 60.2781 132.928 59.7641 135.671L59.7451 135.772L58.0535 135.088L58.0711 134.858C58.2077 133.021 57.2709 131.54 55.3841 130.777C52.7073 129.696 50.1261 131.107 48.808 134.37L48.8042 134.379C47.4861 137.641 48.3643 140.472 51.0318 141.55C52.9093 142.308 54.5861 141.904 55.8851 140.375L55.9468 140.303L57.6384 140.986L57.5823 141.072C56.0346 143.43 53.2154 144.227 50.4084 143.093ZM62.2131 147.819C59.5269 146.733 58.5179 144.066 59.7609 140.99L59.7684 140.971C61.0114 137.894 63.5919 136.699 66.2594 137.777C68.927 138.855 69.9658 141.502 68.7191 144.587L68.7116 144.606C67.4648 147.692 64.8806 148.896 62.2131 147.819ZM62.8007 146.391C64.5016 147.078 66.1409 146.205 67.0571 143.937L67.0647 143.919C67.9809 141.651 67.3913 139.899 65.6811 139.208C63.9988 138.528 62.3354 139.381 61.4229 141.639L61.4153 141.658C60.4953 143.935 61.0905 145.7 62.8007 146.391ZM72.1902 151.85C70.0711 150.994 69.4 149.122 70.2899 146.919L72.8247 140.646L74.442 141.299L72.0236 147.285C71.389 148.855 71.774 150.017 73.2611 150.617C74.7855 151.233 76.2193 150.548 76.884 148.902L79.1822 143.214L80.7995 143.868L76.894 153.534L75.2768 152.881L75.8325 151.505L75.7954 151.49C74.9106 152.181 73.6588 152.443 72.1902 151.85ZM79.5749 154.617L83.4804 144.951L85.0977 145.604L84.5419 146.98L84.5791 146.995C85.4638 146.304 86.7157 146.042 88.1842 146.635C90.3034 147.491 90.9745 149.362 90.0845 151.565L87.5497 157.839L85.9324 157.186L88.3508 151.2C88.9855 149.629 88.6004 148.468 87.1133 147.867C85.589 147.251 84.1551 147.937 83.4904 149.582L81.1922 155.271L79.5749 154.617ZM94.115 160.708C91.3731 159.6 90.4236 156.946 91.6666 153.87L91.6704 153.86C92.9021 150.812 95.4659 149.577 98.1521 150.662C100.559 151.635 101.336 153.808 100.872 155.545L100.851 155.623L99.2708 154.985L99.2822 154.903C99.4311 153.839 98.9958 152.668 97.5738 152.094C95.8915 151.414 94.2035 152.354 93.3173 154.547L93.3135 154.557C92.4048 156.806 93.0203 158.601 94.6933 159.277C96.0131 159.81 97.1594 159.408 97.8645 158.439L97.9131 158.372L99.5025 159.014L99.4669 159.075C98.4631 160.81 96.2992 161.59 94.115 160.708ZM105.769 152.053C105.211 151.828 104.94 151.188 105.165 150.631C105.394 150.064 106.03 149.801 106.587 150.027C107.154 150.256 107.42 150.882 107.191 151.449C106.966 152.007 106.336 152.282 105.769 152.053ZM100.394 163.028L104.299 153.362L105.916 154.015L102.011 163.682L100.394 163.028ZM104.868 164.836L110.287 151.424L111.905 152.078L106.486 165.49L104.868 164.836Z" fill="white"/>
</svg>
