<svg width="233" height="250" viewBox="0 0 233 250" fill="none" xmlns="http://www.w3.org/2000/svg">
<rect x="6.18989" y="0.547434" width="243.904" height="169.892" rx="3.78472" transform="rotate(22 6.18989 0.547434)" stroke="white" stroke-width="0.841049"/>
<path d="M-52.4116 145.592L173.732 236.96" stroke="white" stroke-width="0.841049"/>
<path d="M2.81469 175.506C3.04076 175.371 3.21876 175.165 3.31907 174.917C3.47821 174.523 3.40865 174.061 3.13823 173.71C3.06862 173.62 2.97611 173.55 2.87029 173.507L0.766567 172.657L1.25482 171.6C1.37237 171.345 1.38021 171.06 1.27745 170.799C1.22718 170.671 1.15111 170.554 1.05392 170.456C0.95674 170.358 0.840515 170.281 0.71243 170.23C0.256243 170.046 -0.271363 170.19 -0.570005 170.58L-2.42591 173.004L-2.42855 173.003L-3.94557 176.758L0.197833 178.432C0.278543 178.465 0.363879 178.481 0.449453 178.479C0.938992 178.469 1.37313 178.17 1.55603 177.717C1.60069 177.607 1.62885 177.492 1.6398 177.374C1.86587 177.238 2.04387 177.033 2.14417 176.785C2.18883 176.674 2.21699 176.559 2.22795 176.441C2.45402 176.306 2.63201 176.1 2.73232 175.852C2.77523 175.74 2.80374 175.624 2.81469 175.506ZM-3.95439 172.713L-5.24457 175.907C-5.30731 176.062 -5.23254 176.238 -5.07727 176.301L-4.50703 176.531L-2.99001 172.776L-3.56024 172.546C-3.71552 172.483 -3.89166 172.558 -3.95439 172.713Z" fill="white"/>
<path d="M7.38416 180.818L9.61888 175.287L9.60182 175.28L7.50346 175.722L7.74295 175.129L9.86191 174.661L10.4334 174.892L7.94708 181.045L7.38416 180.818ZM11.3308 182.413L13.5655 176.881L13.5484 176.875L11.4501 177.317L11.6896 176.724L13.8085 176.255L14.38 176.486L11.8937 182.64L11.3308 182.413Z" fill="white"/>
<path d="M58.8957 94.4924L69.3057 83.0969L70.9601 83.7653L70.5232 99.1902L68.7665 98.4805L68.9604 94.0935L63.5603 91.9117L60.6523 95.2021L58.8957 94.4924ZM69.3032 85.4312L64.646 90.6962L69.0331 92.4687L69.3403 85.4463L69.3032 85.4312ZM72.3862 99.9429L76.2916 90.2766L77.9089 90.93L77.248 92.5658L77.2851 92.5808C78.0611 91.5969 79.183 91.2285 80.2705 91.6679C80.5493 91.7805 80.7722 91.9246 80.8948 91.9958L80.2602 93.5666C80.1488 93.4675 79.8237 93.2821 79.4333 93.1244C78.1785 92.6174 77.0076 93.1607 76.4143 94.6292L74.0034 100.596L72.3862 99.9429ZM82.3626 104.19C80.5873 103.473 80.0366 102.32 80.7839 100.471L83.1534 94.6058L81.7407 94.035L82.2814 92.6966L83.6942 93.2674L84.7494 90.6556L86.4224 91.3316L85.3672 93.9433L87.2075 94.6869L86.6668 96.0253L84.8265 95.2818L82.4607 101.137C82.0438 102.169 82.3828 102.641 83.2472 102.99C83.4424 103.069 83.6396 103.116 83.7828 103.164L83.2533 104.474C83.0375 104.419 82.6786 104.318 82.3626 104.19ZM91.0885 94.352C90.5308 94.1267 90.2594 93.4872 90.4847 92.9296C90.7138 92.3626 91.3495 92.1005 91.9071 92.3258C92.4741 92.5549 92.74 93.1812 92.5109 93.7482C92.2856 94.3059 91.6555 94.5811 91.0885 94.352ZM85.7135 105.327L89.6189 95.6611L91.2362 96.3146L87.3307 105.981L85.7135 105.327ZM90.6251 107.312L93.9898 98.984L92.6421 98.4395L93.1828 97.1011L94.5306 97.6456L95.0112 96.4559C95.7623 94.5969 96.9834 94.0632 98.768 94.7842C99.1305 94.9307 99.5003 95.1125 99.7269 95.2473L99.1974 96.5579C99.0135 96.4511 98.7663 96.3404 98.5154 96.239C97.6231 95.8785 96.9929 96.1537 96.6061 97.1111L96.1292 98.2915L98.1183 99.0951L97.5775 100.434L95.6071 99.6374L92.2424 107.965L90.6251 107.312ZM101.934 98.7339C101.376 98.5086 101.105 97.8692 101.33 97.3115C101.559 96.7445 102.195 96.4824 102.753 96.7077C103.32 96.9368 103.586 97.5632 103.357 98.1301C103.131 98.6878 102.501 98.963 101.934 98.7339ZM96.5591 109.709L100.465 100.043L102.082 100.696L98.1764 110.363L96.5591 109.709ZM104.881 113.288C102.139 112.18 101.19 109.526 102.433 106.45L102.436 106.44C103.668 103.392 106.232 102.157 108.918 103.242C111.325 104.215 112.102 106.388 111.638 108.125L111.617 108.203L110.037 107.565L110.048 107.483C110.197 106.419 109.762 105.248 108.34 104.674C106.658 103.994 104.97 104.934 104.083 107.127L104.08 107.137C103.171 109.386 103.786 111.181 105.459 111.857C106.779 112.39 107.925 111.988 108.631 111.019L108.679 110.952L110.269 111.594L110.233 111.655C109.229 113.391 107.065 114.17 104.881 113.288ZM116.535 104.633C115.977 104.408 115.706 103.768 115.931 103.211C116.16 102.644 116.796 102.381 117.353 102.607C117.92 102.836 118.186 103.462 117.957 104.029C117.732 104.587 117.102 104.862 116.535 104.633ZM111.16 115.608L115.065 105.942L116.682 106.596L112.777 116.262L111.16 115.608ZM118.301 118.71C116.377 117.933 115.555 116.249 116.265 114.492L116.272 114.474C116.937 112.829 118.636 112.315 120.91 113.082L123.744 114.044L124.071 113.235C124.547 112.054 124.065 111.027 122.717 110.483C121.472 109.979 120.451 110.259 119.916 111.048L119.863 111.124L118.302 110.493L118.353 110.395C119.134 108.862 121.037 108.139 123.314 109.059C125.601 109.983 126.533 111.797 125.752 113.73L123.052 120.413L121.434 119.76L122.069 118.189L122.032 118.174C121.037 119.004 119.593 119.232 118.301 118.71ZM117.919 115.161C117.543 116.09 118.069 116.984 119.231 117.453C120.755 118.069 122.351 117.492 122.918 116.088L123.237 115.298L120.589 114.412C119.267 113.965 118.291 114.241 117.927 115.142L117.919 115.161ZM125.76 121.508L131.179 108.095L132.797 108.749L127.378 122.161L125.76 121.508ZM42.7748 100.717C42.2171 100.492 41.9457 99.8521 42.171 99.2944C42.4001 98.7275 43.0358 98.4653 43.5935 98.6906C44.1604 98.9197 44.4263 99.5461 44.1973 100.113C43.9719 100.671 43.3418 100.946 42.7748 100.717ZM37.3998 111.692L41.3053 102.026L42.9225 102.679L39.0171 112.346L37.3998 111.692ZM41.7909 113.466L45.6964 103.8L47.3137 104.454L46.7579 105.829L46.7951 105.844C47.6798 105.153 48.9317 104.891 50.4002 105.484C52.5194 106.341 53.1905 108.212 52.3005 110.415L49.7657 116.688L48.1484 116.035L50.5668 110.049C51.2014 108.479 50.8164 107.318 49.3293 106.717C47.805 106.101 46.3711 106.786 45.7064 108.432L43.4082 114.12L41.7909 113.466ZM55.4666 119.208C53.6913 118.491 53.1406 117.338 53.8879 115.489L56.2575 109.624L54.8447 109.053L55.3854 107.715L56.7982 108.286L57.8534 105.674L59.5265 106.35L58.4712 108.961L60.3116 109.705L59.7708 111.043L57.9305 110.3L55.5647 116.155C55.1478 117.187 55.4869 117.659 56.3512 118.009C56.5464 118.087 56.7436 118.135 56.8868 118.182L56.3573 119.492C56.1415 119.437 55.7826 119.336 55.4666 119.208ZM62.3394 121.985C59.5603 120.862 58.6721 118.243 59.9001 115.204L59.9038 115.195C61.113 112.202 63.6531 110.839 66.2928 111.905C68.9325 112.972 69.7481 115.583 68.5764 118.483L68.3361 119.077L61.3745 116.265C60.608 118.269 61.2354 119.874 62.9549 120.568C64.1817 121.064 65.294 120.8 65.907 120.085L65.9687 120.013L67.5581 120.655L67.5019 120.741C66.54 122.212 64.4492 122.837 62.3394 121.985ZM65.7052 113.333C64.3017 112.766 62.8182 113.28 61.9131 115.012L67.2017 117.149C67.8022 115.207 67.118 113.904 65.7052 113.333ZM68.8504 124.399L74.2692 110.987L75.8865 111.641L70.4677 125.053L68.8504 124.399ZM73.3066 126.2L78.7254 112.788L80.3427 113.441L74.9239 126.853L73.3066 126.2ZM83.1564 117.032C82.5987 116.807 82.3273 116.167 82.5526 115.61C82.7817 115.043 83.4174 114.781 83.975 115.006C84.542 115.235 84.8079 115.861 84.5788 116.428C84.3535 116.986 83.7234 117.261 83.1564 117.032ZM77.7814 128.008L81.6868 118.341L83.3041 118.995L79.3986 128.661L77.7814 128.008ZM84.8727 134.873C82.484 133.908 81.4326 132.175 81.6949 130.616L81.7101 130.525L83.3367 131.182L83.3401 131.281C83.3651 132.102 84.1126 132.901 85.4324 133.434C87.1333 134.121 88.4792 133.573 89.0838 132.077L89.5833 130.841L89.5461 130.825C88.538 131.662 87.1447 131.899 85.7598 131.339C83.3247 130.355 82.4533 127.722 83.6737 124.701L83.6775 124.692C84.8904 121.69 87.3614 120.418 89.8151 121.409C91.1814 121.961 91.9592 123.14 92.1184 124.459L92.1556 124.474L92.8165 122.838L94.4338 123.491L90.6372 132.888C89.7322 135.128 87.4937 135.932 84.8727 134.873ZM86.6913 130.051C88.3365 130.715 90.0189 129.762 90.8863 127.615L90.8901 127.606C91.75 125.478 91.1887 123.629 89.5528 122.968C87.8333 122.273 86.1994 123.213 85.3319 125.36L85.3282 125.37C84.4419 127.563 84.9718 129.356 86.6913 130.051ZM97.0936 136.026C94.3146 134.904 93.4264 132.285 94.6543 129.246L94.6581 129.236C95.8673 126.244 98.4074 124.881 101.047 125.947C103.687 127.013 104.502 129.624 103.331 132.524L103.09 133.119L96.1287 130.306C95.3623 132.31 95.9896 133.915 97.7091 134.61C98.936 135.106 100.048 134.842 100.661 134.127L100.723 134.055L102.312 134.697L102.256 134.782C101.294 136.253 99.2035 136.879 97.0936 136.026ZM100.459 127.375C99.056 126.808 97.5724 127.322 96.6673 129.054L101.956 131.19C102.556 129.249 101.872 127.945 100.459 127.375ZM103.521 138.407L107.426 128.741L109.044 129.394L108.488 130.77L108.525 130.785C109.41 130.093 110.662 129.832 112.13 130.425C114.249 131.281 114.921 133.152 114.031 135.355L111.496 141.629L109.879 140.976L112.297 134.99C112.932 133.419 112.546 132.258 111.059 131.657C109.535 131.041 108.101 131.727 107.436 133.372L105.138 139.06L103.521 138.407ZM118.061 144.498C115.319 143.39 114.37 140.736 115.613 137.659L115.616 137.65C116.848 134.602 119.412 133.367 122.098 134.452C124.505 135.425 125.282 137.598 124.818 139.335L124.797 139.413L123.217 138.775L123.228 138.693C123.377 137.629 122.942 136.458 121.52 135.884C119.838 135.204 118.15 136.144 117.263 138.337L117.26 138.346C116.351 140.596 116.966 142.391 118.639 143.066C119.959 143.6 121.105 143.198 121.811 142.229L121.859 142.162L123.449 142.804L123.413 142.865C122.409 144.6 120.245 145.38 118.061 144.498ZM128.14 148.57C125.361 147.447 124.473 144.829 125.701 141.79L125.705 141.78C126.914 138.787 129.454 137.424 132.094 138.491C134.734 139.557 135.549 142.168 134.378 145.068L134.137 145.663L127.176 142.85C126.409 144.854 127.036 146.459 128.756 147.154C129.983 147.65 131.095 147.385 131.708 146.671L131.77 146.598L133.359 147.241L133.303 147.326C132.341 148.797 130.25 149.423 128.14 148.57ZM131.506 139.918C130.103 139.351 128.619 139.866 127.714 141.597L133.003 143.734C133.603 141.793 132.919 140.489 131.506 139.918ZM58.0547 140.603L58.7569 138.865L69.3818 139.06L68.8035 140.491L59.7629 140.255L66.4264 146.375L65.8331 147.843L58.0547 140.603ZM67.3647 149.684L77.7747 138.288L79.4291 138.957L78.9922 154.382L77.2355 153.672L77.4294 149.285L72.0293 147.103L69.1213 150.394L67.3647 149.684ZM77.7722 140.623L73.115 145.888L77.5021 147.66L77.8093 140.638L77.7722 140.623ZM81.1061 155.236L86.525 141.824L88.198 142.5L82.7791 155.912L81.1061 155.236ZM97.5554 154.54L96.8532 156.278L86.2283 156.083L86.8066 154.652L95.851 154.879L89.1837 148.769L89.777 147.3L97.5554 154.54Z" fill="white"/>
</svg>
