<svg width="233" height="217" viewBox="0 0 233 217" fill="none" xmlns="http://www.w3.org/2000/svg">
<rect x="0.474396" y="79.6522" width="211.363" height="147.225" rx="3.27976" transform="rotate(-22 0.474396 79.6522)" stroke="white" stroke-width="0.728837"/>
<path d="M51.2573 205.345L247.229 126.167" stroke="white" stroke-width="0.728837"/>
<path d="M103.692 190.747C103.752 190.527 103.739 190.292 103.652 190.077C103.514 189.735 103.192 189.489 102.813 189.433C102.715 189.419 102.615 189.431 102.523 189.468L100.7 190.204L100.368 189.252C100.288 189.021 100.121 188.839 99.9001 188.739C99.7915 188.689 99.6738 188.662 99.5542 188.659C99.4347 188.657 99.316 188.679 99.2053 188.724C98.81 188.884 98.5678 189.291 98.6168 189.714L98.919 192.342L98.9167 192.343L100.231 195.597L103.822 194.146C103.892 194.118 103.955 194.077 104.007 194.024C104.306 193.723 104.397 193.276 104.238 192.883C104.2 192.788 104.148 192.699 104.084 192.619C104.143 192.398 104.13 192.163 104.043 191.948C104.005 191.852 103.953 191.763 103.889 191.683C103.948 191.463 103.935 191.227 103.849 191.012C103.808 190.917 103.756 190.828 103.692 190.747ZM97.791 193.081L98.9091 195.848C98.9634 195.983 99.1161 196.048 99.2506 195.993L99.7448 195.794L98.4301 192.54L97.936 192.74C97.8014 192.794 97.7366 192.947 97.791 193.081Z" fill="white"/>
<path d="M74.1006 198.867L68.8446 200.99C68.6455 201.071 68.4864 201.227 68.4025 201.425C68.3186 201.622 68.3167 201.845 68.3971 202.045L70.6723 207.676L71.5796 206.174C71.6702 206.024 71.8069 205.907 71.9694 205.842L76.2241 204.123C76.4232 204.042 76.5823 203.886 76.6662 203.688C76.7501 203.491 76.752 203.268 76.6716 203.069L75.1548 199.314C75.0743 199.115 74.918 198.956 74.7203 198.872C74.5226 198.788 74.2997 198.786 74.1006 198.867Z" stroke="white" stroke-width="0.809818" stroke-linecap="round" stroke-linejoin="round"/>
<path d="M82.7893 196.11C83.8277 195.691 85.0806 196.057 85.8287 197.909L85.8317 197.916C86.5663 199.734 86.2395 201.117 84.9756 201.628C84.0776 201.991 83.2136 201.725 82.7464 201.037L82.7211 200.996L83.2311 200.789L83.2623 200.824C83.6095 201.269 84.191 201.42 84.8008 201.174C85.8578 200.747 85.8794 199.513 85.3916 198.231C85.3707 198.18 85.3498 198.128 85.3289 198.076L85.3141 198.082C85.343 198.728 84.9183 199.411 84.157 199.719C83.1407 200.13 82.0822 199.68 81.6746 198.671L81.6716 198.664C81.2506 197.622 81.725 196.54 82.7893 196.11ZM84.054 199.24C84.8079 198.936 85.1855 198.126 84.8943 197.405L84.8928 197.401C84.5823 196.633 83.7512 196.246 82.9751 196.56C82.2249 196.863 81.8725 197.693 82.1786 198.451L82.1816 198.458C82.4892 199.219 83.2853 199.551 84.054 199.24Z" fill="white"/>
<path d="M109.906 191.456L107.969 186.663L107.954 186.669L106.912 188.208L106.705 187.694L107.744 186.127L108.239 185.927L110.394 191.259L109.906 191.456ZM113.326 190.075L111.389 185.281L111.374 185.287L110.332 186.826L110.125 186.312L111.164 184.745L111.659 184.545L113.814 189.878L113.326 190.075Z" fill="white"/>
<path d="M82.4404 110.295C79.9274 111.31 77.73 110.765 76.7812 108.834L76.7276 108.724L78.1774 108.139L78.2391 108.245C78.8801 109.344 80.2973 109.606 81.9807 108.926C83.6561 108.249 84.4053 107.065 83.9204 105.865L83.9172 105.857C83.5039 104.834 82.6043 104.532 80.8663 104.822L79.4637 105.061C76.9906 105.479 75.5141 104.886 74.8275 103.187L74.8242 103.179C74.061 101.266 75.2122 99.2459 77.6044 98.2794C79.8758 97.3617 82.0655 98.0042 82.9623 99.853L83.0192 99.9706L81.5694 100.556L81.5077 100.45C80.8522 99.3377 79.5783 99.0372 78.1044 99.6327C76.5531 100.269 75.8376 101.42 76.29 102.539L76.2932 102.548C76.6772 103.498 77.6188 103.811 79.2664 103.529L80.6691 103.291C83.2647 102.851 84.654 103.414 85.3699 105.186L85.3732 105.194C86.2062 107.256 85.0984 109.221 82.4404 110.295ZM91.5567 106.574C89.7202 107.316 88.1754 106.554 87.4042 104.645L85.2076 99.2082L86.609 98.642L88.7048 103.829C89.2547 105.19 90.1937 105.682 91.4824 105.162C92.8033 104.628 93.2844 103.337 92.7084 101.912L90.7168 96.9824L92.1183 96.4161L95.5027 104.793L94.1012 105.359L93.6196 104.167L93.5874 104.18C93.452 105.144 92.8293 106.06 91.5567 106.574ZM100.863 102.814C98.8898 103.612 97.2909 103.087 96.5165 101.657L96.4792 101.587L97.8807 101.021L97.9293 101.095C98.4369 101.865 99.2556 102.105 100.399 101.643C101.535 101.184 102.02 100.436 101.714 99.6787L101.71 99.6707C101.466 99.0666 101.016 98.8552 99.9708 99.0056L98.5116 99.2204C96.78 99.4797 95.7187 99.0559 95.2305 97.8477L95.2273 97.8396C94.6448 96.3979 95.496 94.864 97.3083 94.1318C99.1447 93.3899 100.745 93.9893 101.416 95.3484L101.467 95.4499L100.13 95.9901L100.099 95.937C99.6574 95.169 98.8192 94.8799 97.7802 95.2997C96.7653 95.7098 96.3356 96.4549 96.6349 97.1959L96.6382 97.204C96.8692 97.7759 97.4073 98.0176 98.4247 97.8689L99.8838 97.6541C101.741 97.3815 102.623 97.8027 103.105 98.9948L103.108 99.0028C103.701 100.469 102.732 102.059 100.863 102.814ZM108.792 99.6108C107.254 100.232 106.217 99.8456 105.569 98.2428L103.516 93.1604L102.292 93.655L101.823 92.4952L103.047 92.0005L102.133 89.7372L103.583 89.1514L104.497 91.4148L106.092 90.7704L106.561 91.9303L104.966 92.5746L107.016 97.6489C107.377 98.543 107.873 98.6332 108.622 98.3306C108.791 98.2622 108.942 98.173 109.06 98.1161L109.519 99.2518C109.351 99.3476 109.066 99.5002 108.792 99.6108ZM113.83 97.5755C112.163 98.2491 110.636 97.6947 110.021 96.1724L110.015 96.1563C109.439 94.7306 110.189 93.3875 112.068 92.4969L114.413 91.3903L114.13 90.6895C113.717 89.6666 112.798 89.3165 111.63 89.7884C110.551 90.2244 110.082 91.0133 110.224 91.8274L110.237 91.9064L108.884 92.4531L108.856 92.3613C108.421 90.9352 109.172 89.3388 111.145 88.5415C113.126 87.7409 114.8 88.311 115.476 89.9864L117.816 95.7775L116.415 96.3438L115.865 94.9826L115.833 94.9956C115.712 96.1123 114.949 97.1232 113.83 97.5755ZM111.455 95.5931C111.78 96.3986 112.646 96.6391 113.653 96.2324C114.974 95.6987 115.621 94.3785 115.129 93.1623L114.853 92.4776L112.669 93.5192C111.575 94.036 111.133 94.7957 111.448 95.577L111.455 95.5931ZM116.923 84.7452C116.44 84.9405 115.886 84.7053 115.691 84.222C115.492 83.7307 115.731 83.1846 116.214 82.9894C116.705 82.7908 117.248 83.0213 117.447 83.5126C117.642 83.9959 117.415 84.5467 116.923 84.7452ZM120.18 94.8226L116.795 86.4459L118.197 85.8797L121.581 94.2564L120.18 94.8226ZM123.985 93.2852L120.601 84.9085L122.002 84.3423L122.484 85.5343L122.516 85.5213C122.651 84.5578 123.274 83.641 124.547 83.1268C126.383 82.3849 127.928 83.1474 128.699 85.0563L130.896 90.4931L129.494 91.0593L127.399 85.8722C126.849 84.511 125.91 84.019 124.621 84.5397C123.3 85.0734 122.819 86.364 123.395 87.7896L125.386 92.719L123.985 93.2852ZM135.692 88.7425C134.025 89.4161 132.499 88.8616 131.884 87.3393L131.877 87.3232C131.301 85.8976 132.052 84.5545 133.931 83.6639L136.276 82.5572L135.993 81.8565C135.579 80.8336 134.66 80.4835 133.492 80.9554C132.413 81.3914 131.945 82.1803 132.086 82.9944L132.1 83.0734L130.746 83.6201L130.719 83.5283C130.283 82.1021 131.034 80.5057 133.007 79.7085C134.989 78.9079 136.662 79.478 137.339 81.1533L139.679 86.9445L138.277 87.5108L137.727 86.1496L137.695 86.1626C137.575 87.2793 136.812 88.2902 135.692 88.7425ZM133.317 86.7601C133.643 87.5655 134.508 87.8061 135.515 87.3993C136.836 86.8657 137.483 85.5455 136.992 84.3292L136.715 83.6446L134.531 84.6862C133.438 85.203 132.995 85.9627 133.311 86.744L133.317 86.7601ZM146.183 84.5041C144.983 84.9889 143.804 84.7623 142.887 83.9993L142.855 84.0123L143.428 85.4299L142.026 85.9961L137.33 74.3735L138.732 73.8072L140.609 78.4547L140.642 78.4417C140.775 77.2636 141.508 76.2738 142.692 75.7954C144.795 74.9461 146.915 76.0663 147.982 78.7082L147.986 78.7163C149.053 81.3581 148.325 83.6384 146.183 84.5041ZM145.408 83.3743C146.89 82.7755 147.33 81.2205 146.552 79.2955L146.549 79.2875C145.777 77.3785 144.378 76.5575 142.896 77.1562C141.486 77.7257 140.969 79.3681 141.724 81.2367L141.727 81.2448C142.486 83.1215 143.99 83.9471 145.408 83.3743ZM151.655 82.1059L146.959 70.4832L148.36 69.917L153.056 81.5396L151.655 82.1059ZM158.956 79.3432C156.548 80.3163 154.418 79.2186 153.354 76.5848L153.351 76.5768C152.303 73.9832 153.066 71.6044 155.353 70.6802C157.641 69.756 159.721 70.8925 160.736 73.4055L160.944 73.921L154.912 76.3584C155.64 78.0691 156.997 78.6919 158.487 78.0898C159.551 77.6603 160.085 76.826 160.037 76.0116L160.032 75.9293L161.409 75.3728L161.426 75.4599C161.711 76.9559 160.785 78.6045 158.956 79.3432ZM155.846 71.9238C154.63 72.4152 154.015 73.6288 154.493 75.2532L159.076 73.4016C158.282 71.8299 157.071 71.4292 155.846 71.9238ZM80.7167 133.416L76.0208 121.793L79.9272 120.215C83.3665 118.825 86.278 120.141 87.7521 123.79L87.7586 123.806C89.2393 127.471 88.0785 130.442 84.6231 131.838L80.7167 133.416ZM81.6393 131.525L83.9992 130.572C86.6331 129.508 87.4481 127.305 86.2831 124.421L86.2766 124.405C85.1051 121.505 82.9916 120.495 80.3578 121.559L77.9978 122.512L81.6393 131.525ZM95.7022 127.549C93.2939 128.522 91.164 127.424 90.0998 124.79L90.0966 124.782C89.0487 122.189 89.8116 119.81 92.099 118.886C94.3865 117.962 96.4666 119.098 97.4819 121.611L97.6902 122.127L91.6574 124.564C92.386 126.275 93.7432 126.897 95.2333 126.295C96.2965 125.866 96.8308 125.032 96.7828 124.217L96.7776 124.135L98.155 123.578L98.1714 123.665C98.4573 125.161 97.5306 126.81 95.7022 127.549ZM92.5921 120.129C91.3759 120.621 90.7607 121.834 91.239 123.459L95.822 121.607C95.0277 120.035 93.8164 119.635 92.5921 120.129ZM103.18 124.34L96.7104 117.21L98.1844 116.614L103.278 122.567L103.311 122.554L102.848 114.73L104.306 114.141L104.613 123.761L103.18 124.34ZM112.479 120.771C110.07 121.744 107.941 120.646 106.876 118.012L106.873 118.004C105.825 115.411 106.588 113.032 108.876 112.108C111.163 111.183 113.243 112.32 114.258 114.833L114.467 115.348L108.434 117.786C109.163 119.496 110.52 120.119 112.01 119.517C113.073 119.088 113.607 118.253 113.559 117.439L113.554 117.357L114.932 116.8L114.948 116.887C115.234 118.383 114.307 120.032 112.479 120.771ZM109.369 113.351C108.152 113.843 107.537 115.056 108.016 116.681L112.599 114.829C111.804 113.257 110.593 112.857 109.369 113.351ZM117.991 118.356L113.295 106.734L114.697 106.167L119.392 117.79L117.991 118.356ZM125.317 115.584C122.989 116.524 120.754 115.469 119.677 112.803L119.671 112.787C118.593 110.121 119.482 107.822 121.794 106.888C124.106 105.954 126.347 106.979 127.427 109.653L127.434 109.669C128.514 112.343 127.628 114.65 125.317 115.584ZM124.824 114.34C126.298 113.745 126.794 112.214 126 110.248L125.993 110.232C125.199 108.267 123.777 107.53 122.295 108.129C120.837 108.718 120.314 110.25 121.104 112.208L121.111 112.224C121.908 114.197 123.342 114.939 124.824 114.34ZM132.177 115.904L127.654 104.708L129.055 104.142L129.628 105.559L129.66 105.546C129.79 104.36 130.48 103.379 131.68 102.894C133.823 102.028 135.93 103.163 136.998 105.805L137.001 105.813C138.068 108.455 137.321 110.734 135.219 111.583C134.035 112.061 132.82 111.859 131.906 111.104L131.873 111.117L133.579 115.338L132.177 115.904ZM134.42 110.463C135.902 109.864 136.339 108.301 135.567 106.392L135.564 106.384C134.786 104.459 133.39 103.646 131.908 104.245C130.49 104.818 129.981 106.457 130.739 108.333L130.743 108.341C131.498 110.21 133.01 111.032 134.42 110.463ZM140.602 109.221L137.218 100.844L138.62 100.278L139.114 101.502L139.146 101.489C139.19 100.506 139.803 99.6121 140.882 99.1761C142.026 98.714 143.109 98.9602 143.885 99.8367L143.917 99.8237C143.978 98.6281 144.716 97.627 145.892 97.1519C147.551 96.4816 149.062 97.1361 149.736 98.8034L152.072 104.587L150.671 105.153L148.464 99.6918C147.999 98.54 147.086 98.1125 145.983 98.5583C144.871 99.0074 144.425 100.153 144.887 101.296L147.038 106.62L145.637 107.187L143.368 101.573C142.958 100.558 142.012 100.163 140.973 100.582C139.861 101.032 139.41 102.235 139.882 103.403L142.004 108.654L140.602 109.221ZM157.867 102.432C155.459 103.405 153.329 102.308 152.265 99.674L152.262 99.6659C151.214 97.0724 151.977 94.6936 154.264 93.7694C156.552 92.8452 158.632 93.9817 159.647 96.4947L159.855 97.0102L153.823 99.4476C154.551 101.158 155.908 101.781 157.399 101.179C158.462 100.749 158.996 99.9152 158.948 99.1007L158.943 99.0185L160.32 98.462L160.337 98.5491C160.623 100.045 159.696 101.694 157.867 102.432ZM154.757 95.013C153.541 95.5044 152.926 96.718 153.404 98.3424L157.987 96.4907C157.193 94.9191 155.982 94.5184 154.757 95.013ZM163.307 100.047L159.923 91.6706L161.324 91.1043L161.806 92.2964L161.838 92.2834C161.973 91.3199 162.596 90.403 163.869 89.8889C165.705 89.1469 167.25 89.9094 168.021 91.8183L170.218 97.2551L168.816 97.8214L166.721 92.6343C166.171 91.2731 165.232 90.7811 163.943 91.3017C162.622 91.8354 162.141 93.126 162.717 94.5517L164.709 99.481L163.307 100.047ZM175.288 95.3939C173.75 96.0155 172.713 95.6287 172.065 94.0258L170.012 88.9434L168.788 89.4381L168.319 88.2782L169.543 87.7836L168.629 85.5203L170.079 84.9345L170.993 87.1978L172.588 86.5535L173.057 87.7133L171.462 88.3577L173.512 93.432C173.873 94.3261 174.369 94.4163 175.118 94.1137C175.287 94.0453 175.438 93.9561 175.556 93.8992L176.015 95.0349C175.847 95.1306 175.562 95.2833 175.288 95.3939ZM121.156 139.952C117.91 141.263 114.878 139.743 113.381 136.038L113.378 136.03C111.911 132.397 113.058 129.254 116.304 127.942C118.978 126.862 121.202 127.753 122.572 129.589L122.674 129.725L121.152 130.34L121.084 130.265C119.948 129.009 118.479 128.619 116.844 129.279C114.452 130.246 113.702 132.563 114.86 135.431L114.863 135.439C116.045 138.363 118.248 139.571 120.616 138.615C122.678 137.781 123.555 135.872 122.768 133.922L122.683 133.713L119.405 135.037L118.891 133.765L123.619 131.855L124.064 132.958C125.334 136.099 124.257 138.699 121.156 139.952ZM131.682 135.661C129.354 136.602 127.119 135.547 126.042 132.88L126.036 132.864C124.959 130.198 125.847 127.9 128.159 126.966C130.471 126.032 132.712 127.056 133.792 129.731L133.799 129.747C134.879 132.421 133.993 134.727 131.682 135.661ZM131.189 134.418C132.663 133.822 133.159 132.291 132.365 130.326L132.358 130.31C131.564 128.345 130.142 127.607 128.66 128.206C127.202 128.795 126.679 130.328 127.469 132.285L127.476 132.301C128.273 134.275 129.707 135.017 131.189 134.418ZM139.917 132.334C138.25 133.008 136.723 132.453 136.108 130.931L136.102 130.915C135.526 129.489 136.276 128.146 138.156 127.256L140.5 126.149L140.217 125.448C139.804 124.425 138.885 124.075 137.717 124.547C136.638 124.983 136.169 125.772 136.311 126.586L136.324 126.665L134.971 127.212L134.943 127.12C134.508 125.694 135.259 124.097 137.232 123.3C139.213 122.5 140.887 123.07 141.563 124.745L143.903 130.536L142.502 131.102L141.952 129.741L141.92 129.754C141.799 130.871 141.037 131.882 139.917 132.334ZM137.542 130.352C137.867 131.157 138.733 131.398 139.74 130.991C141.061 130.457 141.708 129.137 141.216 127.921L140.94 127.236L138.756 128.278C137.662 128.795 137.22 129.554 137.535 130.336L137.542 130.352ZM146.251 129.588L141.555 117.965L142.956 117.399L147.652 129.022L146.251 129.588ZM153.077 127.017C151.104 127.814 149.505 127.289 148.73 125.859L148.693 125.79L150.095 125.224L150.143 125.298C150.651 126.067 151.469 126.308 152.613 125.846C153.749 125.387 154.233 124.639 153.928 123.881L153.924 123.873C153.68 123.269 153.229 123.058 152.185 123.208L150.726 123.423C148.994 123.682 147.933 123.259 147.444 122.05L147.441 122.042C146.859 120.601 147.71 119.067 149.522 118.335C151.359 117.593 152.959 118.192 153.63 119.551L153.681 119.653L152.344 120.193L152.313 120.14C151.871 119.372 151.033 119.083 149.994 119.502C148.979 119.912 148.549 120.658 148.849 121.399L148.852 121.407C149.083 121.979 149.621 122.22 150.639 122.072L152.098 121.857C153.955 121.584 154.837 122.005 155.319 123.197L155.322 123.205C155.915 124.671 154.946 126.262 153.077 127.017Z" fill="white"/>
</svg>
